<svg xmlns="http://www.w3.org/2000/svg" viewBox="0 0 120 120" fill="none" role="img" aria-labelledby="title">
  <title id="title">Corpus atelier mark</title>
  <defs>
    <linearGradient id="petal" x1="32" y1="24" x2="87" y2="98" gradientUnits="userSpaceOnUse"><stop stop-color="#F6B1A1"/><stop offset=".53" stop-color="#E9796A"/><stop offset="1" stop-color="#9B514C"/></linearGradient>
    <filter id="soft" x="8" y="8" width="104" height="104" filterUnits="userSpaceOnUse"><feGaussianBlur stdDeviation="4"/></filter>
  </defs>
  <circle cx="60" cy="60" r="43" fill="#F7E7DB" opacity=".58"/>
  <path d="M89.2 35.4C78.4 18.6 56.1 14.8 39.8 26.8 22.5 39.6 22.6 68.7 40.4 83.4 56.1 96.4 78.5 91 88.6 77.9" stroke="#CAB5E0" stroke-width="1.5" stroke-linecap="round" stroke-dasharray="2 5"/>
  <path d="M79.5 29.1C66.2 17.2 43.8 20 34.3 36.8 24.9 53.2 33.1 77.2 50.7 83.3 66.8 88.9 82.5 78.9 84.4 66.7" stroke="url(#petal)" stroke-width="13" stroke-linecap="round"/>
  <path d="M74.8 34.2C64.6 26.5 49 29.3 42.8 40.5 36.4 52.1 41.2 67.2 52.8 71.3" stroke="#FFF9F3" stroke-width="3.5" stroke-linecap="round"/>
  <circle cx="87.7" cy="76.7" r="7.8" fill="#FFF9F3"/><circle cx="87.7" cy="76.7" r="4.1" fill="#8E6ACC"/>
  <circle cx="80.3" cy="28.7" r="3.5" fill="#F08776"/>
  <path d="M91.6 29.4v9.8M86.7 34.3h9.8" stroke="#8E6ACC" stroke-width="1.6" stroke-linecap="round"/>
</svg>
